<?xml version="1.0" encoding="UTF-8"?>
<svg id="Capa_1" data-name="Capa 1" xmlns="http://www.w3.org/2000/svg" viewBox="0 0 790.25 884.75">
  <defs>
    <style>
      .cls-1 {
        fill: #00ff62;
      }
    </style>
  </defs>
  <path class="cls-1" d="M146.34,738.41v24.39h73.17v-24.39h24.39v-463.41h121.95v512.19h-24.39v48.78h-24.39v24.39h-48.78v24.39H97.56v-24.39h-48.78v-24.39h-24.39v-48.78H0v-121.95h121.95v73.17h24.39Z"/>
  <path class="cls-1" d="M741.47,317.06h24.39v24.39h24.39v170.73h-24.39v48.78h-24.39v24.39h-48.78v24.39h-292.69V0h292.69v24.39h48.78v24.39h24.39v48.78h24.39v170.72h-24.39v24.39h-24.39v24.39ZM643.91,146.33v-24.39h-121.95v121.95h121.95v-24.39h24.39v-73.17h-24.39ZM643.91,390.23v-24.39h-121.95v121.95h121.95v-24.39h24.39v-73.17h-24.39Z"/>
</svg>